<svg width="13" height="13" viewBox="0 0 13 13" fill="none" xmlns="http://www.w3.org/2000/svg">
<path d="M9.24365 7.97217L9.25 1.59277C9.25 1.12305 8.89453 0.742188 8.41846 0.742188C8.09473 0.742188 7.86621 0.888184 7.51074 1.20557L4.85107 3.57324L5.65723 4.37305L7.85986 2.37354C7.8916 2.34814 7.92334 2.32275 7.96777 2.32275C8.01221 2.32275 8.05029 2.36084 8.05029 2.41797V6.77246L9.24365 7.97217ZM11.3574 12.7139C11.5542 12.9106 11.8779 12.9106 12.0684 12.7139C12.2651 12.5171 12.2715 12.1997 12.0684 12.0029L0.972656 0.907227C0.775879 0.710449 0.445801 0.710449 0.249023 0.907227C0.0585938 1.09766 0.0585938 1.42773 0.249023 1.62451L11.3574 12.7139ZM2.78174 9.12109H4.58447C4.63525 9.12109 4.68604 9.14014 4.72412 9.17188L7.51709 11.6665C7.84717 11.9648 8.10107 12.0981 8.43115 12.0981C8.72949 12.0981 8.97705 11.9585 9.12305 11.7046L8.08838 10.6763L5.28906 8.1499C5.16211 8.0293 5.06689 8.00391 4.89551 8.00391H2.88965C2.67383 8.00391 2.57861 7.90234 2.57861 7.68652V5.15381L1.65186 4.2334C1.47412 4.46191 1.37891 4.78564 1.37891 5.21094V7.64844C1.37891 8.63232 1.85498 9.12109 2.78174 9.12109Z" fill="white"/>
</svg>
