<svg width="17" height="13" viewBox="0 0 17 13" fill="none" xmlns="http://www.w3.org/2000/svg">
<path d="M11.1216 9.04492L12.207 10.2764H14.5684C15.5015 10.2764 16.0347 9.74951 16.0347 8.8291V1.75781C16.0347 0.837402 15.5015 0.297852 14.5684 0.297852H2.42529C1.51123 0.297852 0.965332 0.856445 0.965332 1.75781V8.8291C0.965332 9.74951 1.49219 10.2764 2.42529 10.2764H4.8374L5.92285 9.04492H2.71094C2.4126 9.04492 2.25391 8.89258 2.25391 8.59424V1.99268C2.25391 1.69434 2.4126 1.5293 2.71094 1.5293H14.2827C14.5811 1.5293 14.7397 1.69434 14.7397 1.99268V8.59424C14.7397 8.89258 14.5811 9.04492 14.2827 9.04492H11.1216ZM12.4292 12.5298C12.7402 12.5298 12.8545 12.2061 12.6577 11.9839L8.7793 7.59131C8.6333 7.41992 8.36035 7.41992 8.21436 7.59131L4.32959 11.9839C4.13281 12.2061 4.25342 12.5298 4.56445 12.5298H12.4292Z" fill="white"/>
</svg>
