<svg width="14" height="13" viewBox="0 0 14 13" fill="none" xmlns="http://www.w3.org/2000/svg">
<path d="M0.734863 5.26172C0.734863 8.11182 3.05176 10.4287 5.90186 10.4287C6.96191 10.4287 7.93311 10.105 8.74561 9.55273L11.6655 12.4727C11.8433 12.6567 12.0908 12.7393 12.3384 12.7393C12.8779 12.7393 13.2651 12.333 13.2651 11.8062C13.2651 11.5522 13.1763 11.3174 13.0049 11.1396L10.104 8.23242C10.707 7.40088 11.0688 6.37256 11.0688 5.26172C11.0688 2.41162 8.75195 0.0947266 5.90186 0.0947266C3.05176 0.0947266 0.734863 2.41162 0.734863 5.26172ZM2.08057 5.26172C2.08057 3.1543 3.78809 1.44043 5.90186 1.44043C8.00928 1.44043 9.72314 3.1543 9.72314 5.26172C9.72314 7.36914 8.00928 9.08301 5.90186 9.08301C3.78809 9.08301 2.08057 7.36914 2.08057 5.26172Z" fill="white"/>
</svg>
