<svg width="14" height="14" viewBox="0 0 14 14" fill="none" xmlns="http://www.w3.org/2000/svg">
<path d="M7 13.9741C10.5864 13.9741 13.5571 11.0098 13.5571 7.41699C13.5571 3.83057 10.5864 0.859863 6.99365 0.859863C3.40723 0.859863 0.442871 3.83057 0.442871 7.41699C0.442871 11.0098 3.41357 13.9741 7 13.9741ZM7 9.60693C5.19092 9.60693 3.79443 10.248 3.12793 10.9907C2.26465 10.0576 1.73779 8.80078 1.73779 7.41699C1.73779 4.49707 4.07373 2.15479 6.99365 2.15479C9.91357 2.15479 12.2686 4.49707 12.2686 7.41699C12.2686 8.80078 11.7417 10.0576 10.8721 10.9907C10.2056 10.248 8.80908 9.60693 7 9.60693ZM7 8.56592C8.23145 8.57227 9.18359 7.5249 9.18359 6.16016C9.18359 4.87793 8.2251 3.81152 7 3.81152C5.78125 3.81152 4.81006 4.87793 4.81641 6.16016C4.82275 7.5249 5.7749 8.55322 7 8.56592Z" fill="white"/>
</svg>
