<svg width="16" height="11" viewBox="0 0 16 11" fill="none" xmlns="http://www.w3.org/2000/svg">
<path d="M1.58252 4.62354C1.71582 4.75684 1.92529 4.75684 2.05859 4.61084C3.62646 2.94775 5.68945 2.07178 7.99365 2.07178C10.3169 2.07178 12.3862 2.9541 13.9414 4.61719C14.0747 4.75049 14.2715 4.74414 14.4111 4.60449L15.2998 3.71582C15.4268 3.58887 15.4204 3.43018 15.3188 3.30322C13.7954 1.42432 10.9517 0.0722656 7.99365 0.0722656C5.04199 0.0722656 2.19189 1.42432 0.668457 3.30322C0.566895 3.43018 0.573242 3.58887 0.693848 3.71582L1.58252 4.62354ZM4.23584 7.26416C4.38818 7.41016 4.57861 7.39111 4.72461 7.23877C5.49902 6.38818 6.73682 5.7915 7.99365 5.79785C9.26318 5.7915 10.501 6.40723 11.2944 7.25781C11.4214 7.40381 11.6055 7.39746 11.7578 7.25781L12.7544 6.28027C12.875 6.16602 12.8813 6.00732 12.7798 5.88037C11.7896 4.68701 9.98047 3.81738 7.99365 3.81738C6.00684 3.81738 4.19775 4.68701 3.21387 5.88037C3.10596 6.00732 3.1123 6.15967 3.23926 6.28027L4.23584 7.26416ZM7.99365 10.7744C8.15234 10.7744 8.28564 10.7046 8.53955 10.457L10.0947 8.95898C10.209 8.85107 10.2344 8.67969 10.1328 8.55273C9.68848 7.98779 8.88867 7.53711 7.99365 7.53711C7.07959 7.53711 6.26709 8.01318 5.8291 8.60352C5.75293 8.71777 5.79102 8.85107 5.89893 8.95898L7.4541 10.457C7.70801 10.6982 7.84131 10.7744 7.99365 10.7744Z" fill="white"/>
</svg>
